<svg xmlns="http://www.w3.org/2000/svg" xmlns:xlink="http://www.w3.org/1999/xlink" version="1.1" id="Layer_1" x="0px" y="0px" enable-background="new 0 0 496 496" xml:space="preserve" viewBox="159.84 180.1 168.99 142.98">
<path fill="#000000" opacity="1.000000" stroke="none" d=" M311.524597,260.162018   C316.682892,260.449493 314.428528,255.170502 317.713379,252.460068   C318.072723,259.270752 321.724304,262.619598 328.834351,262.928345   C320.596130,266.812592 320.596130,266.812592 316.822510,273.471497   C314.670166,271.415558 315.907471,267.271820 312.289429,266.221893   C310.381104,267.540863 311.269836,269.538666 311.257996,271.188599   C311.180389,282.019836 311.292206,292.852386 311.220734,303.683685   C311.141449,315.703918 304.473633,322.875519 292.429199,322.948364   C257.935120,323.156921 223.439011,323.059387 188.943771,323.027649   C177.885773,323.017456 170.205917,315.578400 170.435974,304.151733   C170.898773,281.164062 170.708405,258.159698 170.495316,235.164932   C170.452179,230.509491 171.847366,227.356171 175.596954,224.668671   C180.193039,221.374435 184.365005,217.494537 188.871933,214.067184   C190.956985,212.481598 191.779327,210.666046 191.726730,208.113022   C191.620361,202.949417 191.853546,197.776459 191.664505,192.617706   C191.531555,188.990189 192.854797,187.511703 196.567841,187.603699   C203.562332,187.777023 210.565781,187.558929 217.563004,187.666183   C220.358902,187.709045 222.661133,186.946243 224.985931,185.358398   C235.210754,178.374908 245.881195,178.348923 256.247467,185.261642   C258.724945,186.913727 261.223328,187.707733 264.182343,187.661896   C270.846405,187.558624 277.518005,187.792969 284.177216,187.587616   C287.991394,187.470001 289.654236,188.651031 289.409607,192.704788   C289.118988,197.519791 289.491913,202.371964 289.294617,207.196472   C289.165955,210.341599 290.224487,212.474701 292.767548,214.380890   C297.830170,218.175613 302.568542,222.401047 307.601715,226.237518   C310.240265,228.248734 311.328735,230.571548 311.281433,233.894669   C311.158112,242.553635 311.325104,251.216751 311.524597,260.162018  M198.260803,249.056000   C207.597961,256.567566 216.814056,264.236328 226.307190,271.545319   C235.333878,278.495209 245.953064,278.592773 254.931076,271.717773   C264.706390,264.232239 274.165039,256.333008 283.755249,248.606018   C285.343628,247.326233 286.645935,245.921112 286.641022,243.638885   C286.605743,227.158157 286.605164,210.677307 286.626495,194.196548   C286.629761,191.685471 285.544647,190.634338 282.993896,190.632416   C273.845856,190.625504 264.697998,190.433960 255.549911,190.420013   C237.098740,190.391876 218.646881,190.514816 200.196762,190.377869   C196.645813,190.351517 195.064651,191.172577 195.099319,195.046585   C195.242279,211.026703 195.166092,227.009003 195.121017,242.990356   C195.114487,245.307663 195.639923,247.263077 198.260803,249.056000  M284.730316,295.766907   C277.801453,288.560150 270.778992,281.439850 263.999084,274.095551   C261.881073,271.801239 260.536713,271.419189 257.887604,273.488312   C247.407547,281.673798 234.758438,281.904755 224.242310,273.931122   C221.011246,271.481201 219.316925,272.103333 216.853485,274.709320   C205.637146,286.574707 194.238434,298.267456 182.971085,310.084991   C181.290817,311.847321 179.245804,313.431488 178.530640,316.186768   C180.742020,318.752045 183.610306,319.709259 186.893631,319.709106   C222.720322,319.707275 258.547028,319.704315 294.373718,319.689606   C297.817108,319.688202 300.866486,318.748108 303.443848,315.510712   C297.300842,309.026764 291.261017,302.651764 284.730316,295.766907  M173.311234,242.641327   C173.310410,263.121643 173.304077,283.601959 173.315247,304.082275   C173.316757,306.871887 173.002167,309.782654 175.795654,312.035156   C176.448273,311.609589 177.222672,311.283264 177.760330,310.727814   C190.150116,297.927643 202.473480,285.062897 214.914627,272.312988   C217.652130,269.507568 216.404678,267.823303 213.982239,265.884491   C202.804626,256.938293 191.690552,247.912750 180.530930,238.943985   C178.423721,237.250458 176.213165,235.685532 173.315964,233.509827   C173.315964,237.063568 173.315964,239.382721 173.311234,242.641327  M287.431885,249.957214   C279.699463,256.173248 271.967041,262.389313 263.601501,269.114288   C277.818024,283.929260 291.507721,298.195221 305.197449,312.461212   C305.856812,312.232819 306.516144,312.004425 307.175507,311.776031   C308.940613,286.079529 306.897644,260.321838 308.104767,233.273682   C300.585815,239.333466 294.280792,244.414917 287.431885,249.957214  M293.554901,218.974686   C292.420502,218.424683 291.429077,217.252655 289.726196,218.248642   C289.726196,226.311600 289.726196,234.471481 289.726196,243.431671   C296.027588,239.089325 301.350555,234.801559 306.799805,229.836243   C302.272034,226.097672 298.202179,222.737228 293.554901,218.974686  M177.795547,232.804749   C182.010117,236.080872 186.224686,239.356995 191.146484,243.182877   C191.146484,233.648117 191.146484,225.460953 191.146484,216.369812   C185.909714,220.640701 181.445679,224.279938 176.983368,227.921341   C174.994324,229.544434 175.571625,230.990997 177.795547,232.804749  M232.054398,185.451401   C231.490509,185.931351 231.164856,186.947021 231.886765,186.973328   C238.066193,187.198715 244.275757,187.987106 251.744614,186.867386   C244.742218,182.478271 238.716629,183.057571 232.054398,185.451401  z"/>
<path fill="#000000" opacity="1.000000" stroke="none" d=" M179.763916,207.468307   C173.822708,208.147736 172.156296,212.444992 170.633575,217.565445   C169.872269,210.923920 166.516541,207.461243 159.839767,206.574554   C165.893326,205.253799 169.925751,202.430252 170.008743,195.839508   C170.924301,196.379471 171.627213,196.572113 171.660843,196.846741   C172.288834,201.973618 175.001709,204.898590 180.211731,205.725449   C182.405075,206.073547 181.726990,206.947861 179.763916,207.468307  z"/>
<path fill="#000000" opacity="1.000000" stroke="none" d=" M229.468231,235.033722   C227.178238,223.280258 237.401215,214.022766 248.405182,217.370117   C255.000046,219.376236 254.991257,219.374374 253.509369,226.419510   C253.339310,227.227997 253.282013,228.070038 253.262878,228.898636   C253.198013,231.709137 253.683762,235.065582 256.789978,235.085632   C259.867737,235.105499 259.638855,231.593826 259.692261,229.161942   C259.894714,219.949844 252.539886,212.577103 242.945770,212.291504   C233.602982,212.013382 226.353317,218.800629 226.024536,228.133469   C225.514084,242.622025 236.945633,250.790604 250.627884,245.694366   C253.053635,244.790848 255.660126,243.691559 256.944244,247.007217   C258.129974,250.068756 255.751053,251.562164 253.486069,252.767838   C244.896820,257.340088 233.776093,255.586166 226.182434,248.523407   C218.537354,241.412766 215.917587,228.454269 220.125534,218.563232   C223.898010,209.695816 234.015335,203.954208 244.560318,204.696472   C255.493195,205.466034 263.930725,212.496155 266.675110,223.277069   C267.716400,227.367538 267.777710,231.516205 266.391296,235.575729   C263.361084,244.448608 255.606430,246.273193 249.000717,239.655792   C248.428925,239.082977 248.122391,238.245361 247.875381,237.834610   C236.567657,241.803223 233.964081,241.402176 229.468231,235.033722  M228.343567,245.573975   C235.714264,252.929794 245.786407,254.123459 252.925858,248.058258   C243.721893,253.432404 235.659683,250.625534 227.780441,244.335281   C221.892700,235.348831 220.137238,226.085709 226.940933,215.412994   C219.202332,222.178452 219.780273,238.106003 228.343567,245.573975  M250.238297,232.823227   C248.908279,229.142685 250.522522,225.652390 251.190094,222.184235   C240.835922,218.170242 232.769669,222.077209 232.292877,231.112396   C232.060730,235.512039 235.430984,238.411392 239.689148,237.324905   C243.389572,236.380722 246.248138,233.097122 250.238297,232.823227  M257.344849,240.364685   C263.357697,237.684799 265.792389,232.034988 263.525299,226.022598   C262.445892,237.753464 260.749084,239.751770 252.902954,238.420700   C253.715164,240.033905 255.318634,240.004593 257.344849,240.364685  z"/>
<path fill="#000000" opacity="1.000000" stroke="none" d=" M240.169922,221.756592   C243.161133,220.600433 245.879257,220.133255 247.606064,222.908585   C249.130829,225.359222 248.512222,227.985443 246.988495,230.366745   C246.899582,230.505692 246.819443,230.650513 246.725952,230.786209   C244.460846,234.073761 241.619812,236.506500 237.363632,236.149780   C235.458389,235.990097 233.943985,234.705078 233.543900,232.746323   C232.707443,228.651184 235.010300,225.850952 237.798264,223.344040   C238.406281,222.797318 239.137314,222.387436 240.169922,221.756592  M243.810501,229.410233   C244.598755,228.006577 245.704681,226.666092 244.700500,224.794083   C243.256744,223.961014 241.850159,224.330872 240.608368,225.234985   C238.356308,226.874603 235.225967,229.048035 237.255768,231.789093   C239.124435,234.312546 241.543655,231.506134 243.810501,229.410233  z"/>
</svg>